<svg version="1.1" id="Layer_1" xmlns="http://www.w3.org/2000/svg" xmlns:xlink="http://www.w3.org/1999/xlink" x="0px" y="0px"
	 width="100%" viewBox="0 0 1287 832" enable-background="new 0 0 1287 832" xml:space="preserve">
<!-- white background removed for transparency -->
<path fill="#3D96C9" opacity="1.000000" stroke="none" 
	d="
M1042.657104,694.354126 
	C1029.922241,672.451172 1017.413330,650.840515 1004.772339,629.307312 
	C1003.070312,626.407959 1002.887146,624.131470 1004.652954,621.094727 
	C1034.276367,570.150391 1063.796509,519.145996 1093.273071,468.116547 
	C1094.743286,465.571075 1096.291992,464.218719 1099.472412,464.226715 
	C1138.460449,464.324677 1177.448730,464.279541 1216.437012,464.288605 
	C1217.553711,464.288879 1218.670532,464.478455 1220.745972,464.666809 
	C1168.891846,554.195984 1117.391235,643.114807 1065.297729,733.057434 
	C1057.522583,719.766479 1050.182129,707.218567 1042.657104,694.354126 
z"/>
<path fill="#3D96C9" opacity="1.000000" stroke="none" 
	d="
M936.410095,659.440063 
	C922.256653,683.906982 908.293396,708.060547 893.795288,733.139282 
	C887.530945,722.429260 881.816467,712.721252 876.161316,702.978821 
	C861.785767,678.212891 847.471375,653.411316 833.022461,628.688354 
	C831.605591,626.264038 831.387390,624.509888 832.875061,621.951477 
	C862.670227,570.709290 892.325012,519.385437 922.190491,468.184387 
	C923.273193,466.328247 926.204712,464.449371 928.284119,464.438690 
	C967.443848,464.237518 1006.604980,464.315216 1045.765869,464.349945 
	C1046.702148,464.350769 1047.638184,464.527069 1049.492432,464.714172 
	C1011.616699,529.940247 974.108459,594.533447 936.410095,659.440063 
z"/>
<path fill="#8C8C8C" opacity="1.000000" stroke="none" 
	d="
M502.300079,253.292130 
	C517.582642,227.116272 532.681091,201.257645 548.230286,174.627014 
	C551.786316,180.667908 554.952942,186.009964 558.084045,191.372757 
	C575.040222,220.414139 591.934204,249.492081 609.019409,278.457306 
	C610.746582,281.385498 610.441956,283.428772 608.861511,286.127075 
	C579.245544,336.692535 549.690491,387.293671 520.186646,437.924622 
	C518.766479,440.361725 517.568298,442.070312 514.223572,442.058533 
	C474.738190,441.919525 435.252228,441.954407 395.766388,441.932709 
	C394.988159,441.932281 394.209991,441.801239 392.556641,441.652344 
	C429.284393,378.614380 465.700165,316.111877 502.300079,253.292130 
z"/>
<path fill="#8C8C8C" opacity="1.000000" stroke="none" 
	d="
M359.153870,420.156586 
	C355.341827,426.644440 351.839050,432.895325 347.995361,438.929077 
	C347.109436,440.319794 345.058167,441.824402 343.537933,441.829834 
	C303.554810,441.973267 263.570953,441.927399 223.587250,441.897186 
	C223.134857,441.896820 222.682617,441.676117 221.393616,441.340332 
	C273.098511,352.586823 324.636902,264.119080 376.718964,174.718140 
	C379.911102,180.006302 382.593994,184.319656 385.150269,188.706802 
	C402.331940,218.194366 419.359558,247.773163 436.786469,277.114868 
	C439.423248,281.554413 438.509338,284.554108 436.268768,288.369171 
	C415.107727,324.400055 394.051361,360.492371 372.962769,396.565826 
	C368.425781,404.326569 363.880585,412.082520 359.153870,420.156586 
z"/>
<path fill="#8C8C8C" opacity="1.000000" stroke="none" 
	d="
M1053.322998,194.303268 
	C1057.121338,187.894241 1060.728027,181.797989 1064.883423,174.774323 
	C1117.005737,264.161011 1168.584717,352.615662 1220.680176,441.956238 
	C1217.856934,441.956238 1216.095581,441.956238 1214.334229,441.956268 
	C1176.350098,441.956512 1138.365479,441.883057 1100.382202,442.067017 
	C1096.424194,442.086151 1094.441162,440.635864 1092.591064,437.455017 
	C1065.056763,390.116180 1037.800293,342.608002 1009.531677,295.710327 
	C1003.426392,285.581665 1003.355774,278.582001 1009.608337,268.658112 
	C1024.862305,244.447571 1038.714600,219.354065 1053.322998,194.303268 
z"/>
<path fill="#8C8C8C" opacity="1.000000" stroke="none" 
	d="
M968.000000,441.954102 
	C954.836975,441.954071 942.170166,441.778534 929.513123,442.054474 
	C925.489868,442.142181 923.238037,440.865234 921.225952,437.397278 
	C897.916321,397.220184 874.454163,357.131592 851.040588,317.014709 
	C844.914490,306.518219 838.705872,296.066559 832.821594,285.435760 
	C831.908936,283.786987 831.689209,280.794373 832.580505,279.248627 
	C852.290161,245.067947 872.200073,211.002731 892.087769,176.924850 
	C892.409180,176.374084 892.928894,175.939041 893.648376,175.115234 
	C945.450073,263.917572 997.106140,352.470245 1049.304932,441.953339 
	C1021.878479,441.953339 995.189270,441.953339 968.000000,441.954102 
z"/>
<path fill="#8C8C8C" opacity="1.000000" stroke="none" 
	d="
M700.000000,271.086975 
	C676.334778,271.088104 653.169556,271.062866 630.004517,271.127075 
	C627.348694,271.134430 625.444336,270.802277 623.889221,268.112640 
	C604.469788,234.526184 584.904480,201.024094 565.392151,167.491302 
	C565.247803,167.243271 565.318420,166.870239 565.251160,166.159348 
	C668.971558,166.159348 772.638672,166.159348 876.906311,166.159348 
	C872.397583,174.066315 868.108582,181.705612 863.709534,189.280960 
	C848.656799,215.202286 833.517883,241.073776 818.554016,267.046204 
	C816.841919,270.017944 814.985474,271.173218 811.492798,271.160858 
	C774.495605,271.029938 737.497681,271.084045 700.000000,271.086975 
z"/>
<path fill="#3C96C9" opacity="1.000000" stroke="none" 
	d="
M603.632080,674.630432 
	C610.636536,662.493530 617.536987,650.719055 624.229126,638.827332 
	C625.794250,636.046143 627.523560,634.927490 630.848755,634.933960 
	C690.979248,635.051086 751.109985,635.040955 811.240662,634.960388 
	C814.231079,634.956360 816.124146,635.728455 817.662292,638.407532 
	C836.722046,671.603760 855.875793,704.746033 874.997192,737.906921 
	C875.238403,738.325256 875.373779,738.804626 875.760681,739.748413 
	C772.587646,739.748413 669.658813,739.748413 566.014526,739.748413 
	C578.566284,718.023376 591.009216,696.486755 603.632080,674.630432 
z"/>
<path fill="#3C96CA" opacity="1.000000" stroke="none" 
	d="
M377.016876,518.018677 
	C377.016876,518.018677 377.208832,518.208557 377.155853,518.753052 
	C377.114441,519.796021 376.947021,520.395569 377.163330,520.778259 
	C385.615112,535.730286 394.014435,550.713135 402.617584,565.577942 
	C407.569794,574.134644 412.976135,582.427795 417.964386,590.964417 
	C422.983185,599.553406 427.536865,608.417786 432.668671,616.935974 
	C437.005371,624.134399 436.972229,627.236450 432.297668,634.242554 
	C427.983246,640.708923 424.025635,647.425293 420.145142,654.166382 
	C414.399506,664.147522 408.924072,674.283813 403.214264,684.285889 
	C398.570007,692.421326 393.789581,700.480042 388.995819,708.528809 
	C385.299866,714.734192 381.489532,720.871460 377.170380,727.957153 
	C375.185974,725.429749 373.573914,723.819580 372.478729,721.912537 
	C362.333405,704.246765 352.357025,686.483765 342.166962,668.843994 
	C335.384613,657.103271 328.256165,645.562805 321.423126,633.850708 
	C312.339508,618.281189 303.446747,602.600220 294.369659,587.026794 
	C287.253479,574.817749 279.884705,562.755493 272.805573,550.525330 
	C265.204895,537.394104 257.886597,524.099609 250.306076,510.956512 
	C242.876404,498.074982 235.233063,485.316864 227.763138,472.458344 
	C224.801956,467.361053 225.610916,466.005890 231.470047,466.002014 
	C267.802429,465.978027 304.135010,466.034454 340.466980,465.907074 
	C344.374573,465.893372 346.720917,467.412415 348.373871,470.696747 
	C350.214661,474.354431 352.043335,478.026733 354.083984,481.573700 
	C359.198608,490.463745 364.319702,499.354004 369.668732,508.103241 
	C371.806061,511.599182 374.549408,514.724609 377.016876,518.018677 
z"/>
<path fill="#5C98B6" opacity="1.000000" stroke="none" 
	d="
M530.812012,703.299438 
	C484.635803,623.829651 438.634216,544.682434 392.078369,464.581604 
	C394.780457,464.422455 396.492004,464.235199 398.203735,464.233582 
	C436.532654,464.197174 474.861816,464.236511 513.190125,464.070160 
	C516.760254,464.054657 518.557800,465.415558 520.214111,468.289795 
	C546.726990,514.298523 573.312927,560.265076 599.898682,606.231750 
	C603.066528,611.708984 606.461426,617.060364 609.454102,622.629639 
	C610.160583,623.944397 610.330322,626.290161 609.624146,627.513489 
	C589.564453,662.264282 569.361328,696.932312 549.171997,731.608215 
	C549.012634,731.882019 548.721924,732.079468 547.930237,732.884216 
	C542.212646,723.009766 536.599670,713.315857 530.812012,703.299438 
M494.008606,635.489807 
	C496.683411,640.343689 499.248413,645.262146 502.054321,650.039001 
	C509.481232,662.682983 517.061096,675.237183 524.480469,687.885559 
	C527.898560,693.712585 530.998169,699.726013 534.396545,705.565063 
	C538.588074,712.766785 542.940308,719.874939 547.596558,727.646912 
	C549.936096,724.657898 551.897766,722.625183 553.309265,720.263550 
	C558.466187,711.634888 563.374878,702.858276 568.497375,694.208679 
	C576.194946,681.210876 584.127136,668.350403 591.702698,655.282593 
	C596.751343,646.573730 601.107605,637.458984 606.274658,628.825684 
	C608.357910,625.344971 607.976746,622.946594 605.986755,619.802002 
	C599.623108,609.745667 593.322144,599.640137 587.340759,589.353638 
	C578.552490,574.239929 570.110840,558.925049 561.427917,543.749512 
	C554.041138,530.839294 546.544739,517.991638 539.054749,505.140839 
	C532.340149,493.620331 525.697815,482.053314 518.702637,470.704681 
	C517.433044,468.644989 514.624939,466.207672 512.510498,466.192078 
	C475.861206,465.921356 439.209259,465.983246 402.557983,466.031128 
	C397.939484,466.037170 396.836670,468.394745 399.244537,472.480164 
	C401.734772,476.705444 404.105347,481.001495 406.609741,485.218170 
	C414.578491,498.635101 422.663208,511.983734 430.555084,525.445618 
	C438.317169,538.685852 445.911011,552.024902 453.555389,565.334045 
	C460.218445,576.934509 466.832886,588.562927 473.498566,600.161804 
	C480.160889,611.754761 486.860138,623.326355 494.008606,635.489807 
z"/>
<path fill="#629DB9" opacity="1.000000" stroke="none" 
	d="
M376.969818,517.660645 
	C374.549408,514.724609 371.806061,511.599182 369.668732,508.103241 
	C364.319702,499.354004 359.198608,490.463745 354.083984,481.573700 
	C352.043335,478.026733 350.214661,474.354431 348.373871,470.696747 
	C346.720917,467.412415 344.374573,465.893372 340.466980,465.907074 
	C304.135010,466.034454 267.802429,465.978027 231.470047,466.002014 
	C225.610916,466.005890 224.801956,467.361053 227.763138,472.458344 
	C235.233063,485.316864 242.876404,498.074982 250.306076,510.956512 
	C257.886597,524.099609 265.204895,537.394104 272.805573,550.525330 
	C279.884705,562.755493 287.253479,574.817749 294.369659,587.026794 
	C303.446747,602.600220 312.339508,618.281189 321.423126,633.850708 
	C328.256165,645.562805 335.384613,657.103271 342.166962,668.843994 
	C352.357025,686.483765 362.333405,704.246765 372.478729,721.912537 
	C373.573914,723.819580 375.185974,725.429749 377.170380,727.957153 
	C381.489532,720.871460 385.299866,714.734192 388.995819,708.528809 
	C393.789581,700.480042 398.570007,692.421326 403.214264,684.285889 
	C408.924072,674.283813 414.399506,664.147522 420.145142,654.166382 
	C424.025635,647.425293 427.983246,640.708923 432.297668,634.242554 
	C436.972229,627.236450 437.005371,624.134399 432.668671,616.935974 
	C427.536865,608.417786 422.983185,599.553406 417.964386,590.964417 
	C412.976135,582.427795 407.569794,574.134644 402.617584,565.577942 
	C394.014435,550.713135 385.615112,535.730286 377.163330,520.778259 
	C376.947021,520.395569 377.114441,519.796021 377.166748,518.887634 
	C384.409027,530.446472 391.704407,542.346985 398.740509,554.398926 
	C411.744629,576.673157 424.657928,599.001465 437.395294,621.428650 
	C438.407074,623.210144 438.703003,626.473328 437.747284,628.138733 
	C418.032257,662.493103 398.088226,696.716064 378.177216,730.957825 
	C377.865997,731.492981 377.398560,731.937195 376.497314,733.048950 
	C324.569458,643.449890 272.900787,554.298096 220.866745,464.515778 
	C223.286072,464.377991 224.872177,464.209534 226.458359,464.208771 
	C264.772888,464.190399 303.087555,464.236328 341.401703,464.110046 
	C344.990814,464.098175 347.139801,465.102509 348.939117,468.308594 
	C358.143372,484.709290 367.572357,500.983917 376.969818,517.660645 
z"/>
<path fill="#3B96CA" opacity="1.000000" stroke="none" 
	d="
M493.775879,635.198608 
	C486.860138,623.326355 480.160889,611.754761 473.498566,600.161804 
	C466.832886,588.562927 460.218445,576.934509 453.555389,565.334045 
	C445.911011,552.024902 438.317169,538.685852 430.555084,525.445618 
	C422.663208,511.983734 414.578491,498.635101 406.609741,485.218170 
	C404.105347,481.001495 401.734772,476.705444 399.244537,472.480164 
	C396.836670,468.394745 397.939484,466.037170 402.557983,466.031128 
	C439.209259,465.983246 475.861206,465.921356 512.510498,466.192078 
	C514.624939,466.207672 517.433044,468.644989 518.702637,470.704681 
	C525.697815,482.053314 532.340149,493.620331 539.054749,505.140839 
	C546.544739,517.991638 554.041138,530.839294 561.427917,543.749512 
	C570.110840,558.925049 578.552490,574.239929 587.340759,589.353638 
	C593.322144,599.640137 599.623108,609.745667 605.986755,619.802002 
	C607.976746,622.946594 608.357910,625.344971 606.274658,628.825684 
	C601.107605,637.458984 596.751343,646.573730 591.702698,655.282593 
	C584.127136,668.350403 576.194946,681.210876 568.497375,694.208679 
	C563.374878,702.858276 558.466187,711.634888 553.309265,720.263550 
	C551.897766,722.625183 549.936096,724.657898 547.596558,727.646912 
	C542.940308,719.874939 538.588074,712.766785 534.396545,705.565063 
	C530.998169,699.726013 527.898560,693.712585 524.480469,687.885559 
	C517.061096,675.237183 509.481232,662.682983 502.054321,650.039001 
	C499.248413,645.262146 496.683411,640.343689 493.775879,635.198608 
z"/>
</svg>